<svg version="1.1" id="Layer_1" xmlns="http://www.w3.org/2000/svg" xmlns:xlink="http://www.w3.org/1999/xlink" x="0px" y="0px"
	 width="100%" viewBox="0 0 1000 540" enable-background="new 0 0 1000 540" xml:space="preserve">
<path fill="#FFFFFF" opacity="1.000000" stroke="none" 
	d="
M746.000000,541.000000 
	C497.333344,541.000000 249.166672,541.000000 1.000000,541.000000 
	C1.000000,361.000000 1.000000,181.000000 1.000000,1.000000 
	C334.333344,1.000000 667.666687,1.000000 1001.000000,1.000000 
	C1001.000000,181.000000 1001.000000,361.000000 1001.000000,541.000000 
	C916.166687,541.000000 831.333313,541.000000 746.000000,541.000000 
M118.500031,229.000000 
	C159.293259,229.000000 200.086487,229.000000 240.781845,229.000000 
	C252.489502,170.957535 220.008652,110.848923 159.298981,93.382584 
	C96.196251,75.227760 32.508991,109.514587 13.663499,172.950211 
	C-3.403255,230.398438 26.023607,296.801788 91.050476,317.480438 
	C147.952667,335.575439 209.730316,307.027191 232.574860,254.000473 
	C206.187149,254.000473 179.905457,253.981705 153.624130,254.074799 
	C152.657227,254.078217 151.472641,254.982346 150.764084,255.793808 
	C144.618408,262.832031 137.095886,267.652740 127.674110,267.899567 
	C107.403954,268.430664 91.419991,250.411377 95.623222,229.000000 
	C102.880951,229.000000 110.190498,229.000000 118.500031,229.000000 
M858.048279,321.557037 
	C913.026062,330.002625 964.125122,297.168762 981.534424,254.000000 
	C956.830261,254.000000 932.198425,254.101974 907.568970,253.903595 
	C903.265381,253.868927 900.197449,254.978622 897.208313,258.147278 
	C889.694336,266.112793 880.602295,269.299164 869.464417,267.096039 
	C851.708313,263.583771 841.392090,245.773331 844.710815,229.000000 
	C867.332153,229.000000 889.984131,229.000000 912.636047,229.000000 
	C937.132385,229.000000 961.628967,228.950470 986.124695,229.069275 
	C988.864319,229.082565 990.659485,228.439758 990.950928,225.672150 
	C992.799133,208.119507 993.131409,190.641312 987.998291,173.476562 
	C978.345825,141.199646 958.783447,116.900345 928.827332,101.486778 
	C905.024231,89.239151 879.741089,86.109650 853.341003,90.931511 
	C832.444946,94.748062 814.056213,103.665070 798.157349,117.475662 
	C785.083740,128.832169 774.789917,142.519684 768.094543,158.603531 
	C760.704590,176.356033 757.051392,194.659531 758.781616,214.145874 
	C759.812500,225.756805 762.058289,236.853027 766.005127,247.719070 
	C771.757385,263.555664 780.941162,277.342773 792.832092,288.991394 
	C799.959167,295.973267 808.361572,301.889130 816.891846,307.146667 
	C829.207153,314.737152 842.734985,319.598846 858.048279,321.557037 
M610.500000,323.000000 
	C628.257202,323.000000 646.014343,323.000000 663.964111,323.000000 
	C663.964111,265.795258 663.964111,209.178284 663.964111,152.308990 
	C684.078979,157.887909 704.291931,157.873199 724.625610,156.020172 
	C732.909851,155.265228 733.999573,154.504181 733.999756,148.439499 
	C734.000488,130.113281 734.005432,111.787064 733.989319,93.460861 
	C733.988098,92.029709 733.836304,90.598694 733.745117,89.004807 
	C710.403625,89.004807 687.435486,89.004807 664.799683,89.004807 
	C650.184692,63.374138 635.561096,38.122974 621.457336,12.584714 
	C619.249084,8.586018 617.002991,7.877455 613.083374,7.930196 
	C599.591064,8.111742 586.094788,8.000000 572.600037,8.000000 
	C566.154358,8.000000 559.708679,8.000000 552.894775,8.000000 
	C555.265625,65.482552 580.690308,108.872742 629.950073,138.967239 
	C628.273071,139.946259 627.423523,140.613937 626.459412,140.978546 
	C616.571289,144.718033 607.930481,150.593048 600.687317,158.048279 
	C593.146362,165.809967 586.574158,174.618439 583.469849,185.226028 
	C581.439392,192.164474 579.278687,199.395203 579.197083,206.518158 
	C578.773682,243.498947 579.000000,280.487183 579.000000,317.472809 
	C579.000000,319.238037 579.000000,321.003265 579.000000,323.000000 
	C589.553711,323.000000 599.526855,323.000000 610.500000,323.000000 
M279.999969,239.495850 
	C280.432190,246.557068 280.082764,253.773193 281.445587,260.649994 
	C285.289032,280.044159 295.328644,295.856384 311.247101,307.685699 
	C322.205872,315.829376 334.504517,320.846649 348.209259,321.971863 
	C354.113098,322.456573 360.040070,322.831665 365.960785,322.902405 
	C377.889160,323.044952 389.820465,322.944885 401.708374,322.944885 
	C401.708374,299.701263 401.708374,276.969238 401.708374,253.816803 
	C389.682434,253.816803 377.942505,253.816803 365.810913,253.816803 
	C365.810913,171.671646 365.810913,89.948952 365.810913,8.304951 
	C337.006195,8.304951 308.608368,8.304951 280.000000,8.304951 
	C280.000000,85.238945 280.000000,161.868195 279.999969,239.495850 
M443.000000,188.500000 
	C443.000000,233.250259 443.000000,278.000519 443.000000,322.709656 
	C471.968201,322.709656 500.363953,322.709656 529.000000,322.709656 
	C529.000000,320.611603 529.000000,318.801880 529.000000,316.992157 
	C529.000000,281.670410 528.982056,246.348633 529.010437,211.026917 
	C529.019470,199.792999 526.402161,189.125366 521.525391,179.129379 
	C512.198364,160.011734 497.395264,146.740662 477.789215,139.563095 
	C487.408447,132.316177 497.524750,125.511421 506.662994,117.579842 
	C515.745300,109.696877 523.497986,100.418007 529.627930,89.298286 
	C500.045258,89.298286 471.634491,89.298286 443.000000,89.298286 
	C443.000000,122.230721 443.000000,154.865356 443.000000,188.500000 
M48.000000,517.491943 
	C48.000000,494.829620 48.000000,472.167297 48.000000,449.504974 
	C48.406189,449.451202 48.812378,449.397461 49.218567,449.343719 
	C49.579586,450.795563 49.902435,452.258148 50.307312,453.697662 
	C57.189613,478.167450 64.226677,502.595673 70.799545,527.148193 
	C71.675995,530.422180 72.750595,531.093201 75.632156,531.038574 
	C82.127617,530.915588 88.634789,530.811401 95.121490,531.079590 
	C98.363480,531.213684 99.753952,530.048645 100.560455,527.015137 
	C106.308601,505.394440 112.165009,483.802399 118.038612,462.215302 
	C119.225533,457.853058 120.632576,453.550751 121.938141,449.220795 
	C122.308800,449.305481 122.679451,449.390137 123.050110,449.474823 
	C123.050110,476.516602 123.050110,503.558350 123.050110,530.779297 
	C133.152985,530.779297 142.885895,530.779297 152.780273,530.779297 
	C152.780273,487.833405 152.780273,445.108459 152.780273,402.001617 
	C139.777191,402.001617 126.988655,401.917542 114.206001,402.152618 
	C113.119720,402.172577 111.548889,404.149719 111.098732,405.513275 
	C109.235016,411.158630 107.690819,416.910583 106.074509,422.636200 
	C100.698799,441.679169 95.347977,460.729156 89.975220,479.772949 
	C88.643326,484.493896 87.264648,489.201660 85.645874,494.824066 
	C81.560555,480.166687 77.831833,466.519165 73.945869,452.916565 
	C69.351219,436.833282 64.659058,420.777344 59.865601,404.752502 
	C59.536552,403.652466 58.020744,402.133209 57.038929,402.119812 
	C44.111233,401.943146 31.180313,402.002197 18.281422,402.002197 
	C18.281422,445.290619 18.281422,488.015778 18.281422,530.707642 
	C28.299568,530.707642 38.033691,530.707642 48.000000,530.707642 
	C48.000000,526.441162 48.000000,522.464905 48.000000,517.491943 
M281.378235,400.000000 
	C274.304901,400.331970 267.118561,399.975189 260.177521,401.113770 
	C228.077042,406.379608 210.283447,431.501404 208.067215,460.723877 
	C207.233261,471.719849 208.852493,482.537994 213.043518,492.809418 
	C219.289734,508.117706 229.529785,519.656738 244.891129,526.472534 
	C257.548248,532.088440 270.472412,533.853699 284.311218,532.154541 
	C303.771973,529.765198 319.408569,521.183350 329.881714,504.822083 
	C345.547058,480.349579 345.680328,454.520020 331.577576,429.620270 
	C321.095947,411.113892 303.839935,401.426239 281.378235,400.000000 
M668.525879,495.978180 
	C669.354797,494.060425 670.355713,492.197205 670.984253,490.215851 
	C674.627747,478.731384 675.816589,467.169128 674.185425,455.031372 
	C672.320557,441.155426 667.095581,429.014160 657.514832,419.203766 
	C638.125000,399.349121 613.946899,396.441650 588.265808,402.177582 
	C574.614380,405.226685 563.414062,412.914978 554.917297,424.376526 
	C542.692505,440.866882 539.772949,459.296783 543.022034,479.053436 
	C546.489075,500.135559 557.595886,516.122314 576.637329,525.730713 
	C589.450195,532.196167 603.263062,534.102966 617.832581,532.154053 
	C641.031921,529.050598 658.054382,517.972168 668.525879,495.978180 
M818.961426,505.666809 
	C813.630798,496.915955 808.300171,488.165100 802.870056,479.250885 
	C815.799255,473.992798 824.566101,465.658997 827.512085,452.058258 
	C829.196106,444.283691 830.014404,436.465057 827.290344,428.871460 
	C825.580139,424.104218 823.598206,419.118591 820.487671,415.231659 
	C812.709167,405.511658 801.433716,402.493439 789.648865,402.118927 
	C774.332825,401.632172 758.989624,402.000000 743.658081,402.000000 
	C739.211304,402.000000 734.764465,402.000000 730.254150,402.000000 
	C730.254150,445.222229 730.254150,487.953979 730.254150,530.732605 
	C740.578735,530.732605 750.647095,530.732605 761.130615,530.732605 
	C761.130615,514.393433 761.130615,498.316772 761.130615,482.000580 
	C764.188965,482.000580 766.853088,481.799500 769.462646,482.089081 
	C770.688110,482.225098 772.323914,483.007874 772.899902,484.003204 
	C781.870667,499.504608 790.698181,515.088867 799.530640,530.604614 
	C810.517822,530.604614 821.699585,530.604614 833.290283,530.604614 
	C828.354370,522.223572 823.699951,514.320557 818.961426,505.666809 
M925.828308,447.968170 
	C924.467834,447.085297 923.195190,446.002594 921.729858,445.358002 
	C917.796448,443.627686 916.826416,440.478790 916.978882,436.562164 
	C917.135132,432.548279 919.538025,430.380829 922.922607,429.014832 
	C931.852966,425.410522 941.010498,426.374451 949.927795,428.575867 
	C956.859802,430.287170 963.495911,433.197388 970.546631,435.674225 
	C974.159424,427.815216 977.948669,419.572296 981.801880,411.190338 
	C980.140930,410.102356 978.530396,409.034393 976.904785,407.989929 
	C976.361328,407.640778 975.804626,407.290283 975.210999,407.044128 
	C957.201294,399.575562 938.417603,397.960999 919.427979,401.137024 
	C899.540222,404.463196 887.299988,415.895660 886.234131,435.323975 
	C885.206177,454.060364 892.490173,466.800842 911.643616,473.931519 
	C922.924011,478.131165 934.511536,481.499023 945.878845,485.475616 
	C949.866699,486.870636 953.144287,489.908234 952.816772,494.293488 
	C952.474609,498.875397 949.415894,502.383514 944.773682,503.666931 
	C935.526184,506.223541 926.080505,506.742065 916.796448,504.259094 
	C908.616943,502.071594 900.647888,499.097534 892.306702,496.379852 
	C888.773926,504.397400 885.059570,512.827087 881.415039,521.098267 
	C894.103333,528.291443 906.848450,530.930481 920.282349,532.234497 
	C933.725159,533.539490 946.671570,532.916321 959.288696,528.246765 
	C981.123291,520.165894 985.533325,503.560974 982.383423,484.031128 
	C980.017883,469.364716 969.118164,461.725830 956.107361,457.072296 
	C946.435730,453.613129 936.463135,450.995331 925.828308,447.968170 
M388.720154,429.993744 
	C401.124634,429.993744 413.529144,429.993744 426.323242,429.993744 
	C426.323242,464.131012 426.323242,497.520538 426.323242,530.628418 
	C436.798279,530.628418 446.867096,530.628418 457.324249,530.628418 
	C457.324249,496.867859 457.324249,463.478333 457.324249,429.677185 
	C470.795258,429.677185 483.863861,429.677185 496.797974,429.677185 
	C496.797974,420.310577 496.797974,411.362457 496.797974,402.369385 
	C460.090607,402.369385 423.586456,402.369385 387.757721,402.369385 
	C387.757721,411.805389 387.757721,420.866730 388.720154,429.993744 
z"/>
<path fill="#003133" opacity="1.000000" stroke="none" 
	d="
M118.000038,229.000000 
	C110.190498,229.000000 102.880951,229.000000 95.623222,229.000000 
	C91.419991,250.411377 107.403954,268.430664 127.674110,267.899567 
	C137.095886,267.652740 144.618408,262.832031 150.764084,255.793808 
	C151.472641,254.982346 152.657227,254.078217 153.624130,254.074799 
	C179.905457,253.981705 206.187149,254.000473 232.574860,254.000473 
	C209.730316,307.027191 147.952667,335.575439 91.050476,317.480438 
	C26.023607,296.801788 -3.403255,230.398438 13.663499,172.950211 
	C32.508991,109.514587 96.196251,75.227760 159.298981,93.382584 
	C220.008652,110.848923 252.489502,170.957535 240.781845,229.000000 
	C200.086487,229.000000 159.293259,229.000000 118.000038,229.000000 
M99.031265,167.724854 
	C97.731750,171.375381 96.432228,175.025909 95.147087,178.636047 
	C116.141457,178.636047 136.499008,178.636047 156.921967,178.636047 
	C152.802521,158.040970 139.190231,152.096863 127.026352,151.364273 
	C115.273468,150.656433 105.752136,156.764465 99.031265,167.724854 
z"/>
<path fill="#003133" opacity="1.000000" stroke="none" 
	d="
M857.673096,321.305939 
	C842.734985,319.598846 829.207153,314.737152 816.891846,307.146667 
	C808.361572,301.889130 799.959167,295.973267 792.832092,288.991394 
	C780.941162,277.342773 771.757385,263.555664 766.005127,247.719070 
	C762.058289,236.853027 759.812500,225.756805 758.781616,214.145874 
	C757.051392,194.659531 760.704590,176.356033 768.094543,158.603531 
	C774.789917,142.519684 785.083740,128.832169 798.157349,117.475662 
	C814.056213,103.665070 832.444946,94.748062 853.341003,90.931511 
	C879.741089,86.109650 905.024231,89.239151 928.827332,101.486778 
	C958.783447,116.900345 978.345825,141.199646 987.998291,173.476562 
	C993.131409,190.641312 992.799133,208.119507 990.950928,225.672150 
	C990.659485,228.439758 988.864319,229.082565 986.124695,229.069275 
	C961.628967,228.950470 937.132385,229.000000 912.636047,229.000000 
	C889.984131,229.000000 867.332153,229.000000 844.710815,229.000000 
	C841.392090,245.773331 851.708313,263.583771 869.464417,267.096039 
	C880.602295,269.299164 889.694336,266.112793 897.208313,258.147278 
	C900.197449,254.978622 903.265381,253.868927 907.568970,253.903595 
	C932.198425,254.101974 956.830261,254.000000 981.534424,254.000000 
	C964.125122,297.168762 913.026062,330.002625 857.673096,321.305939 
M905.674316,175.159988 
	C905.473633,174.906845 905.170898,174.683548 905.086792,174.396271 
	C900.898438,160.082275 890.526489,152.446671 876.490173,151.494614 
	C865.443542,150.745346 855.867249,155.868103 849.559082,165.817291 
	C847.029419,169.807159 844.684631,173.690567 845.142639,178.998718 
	C864.759766,178.998718 884.170654,179.035065 903.579895,178.870468 
	C904.385864,178.863632 905.175781,176.977600 905.674316,175.159988 
z"/>
<path fill="#003133" opacity="1.000000" stroke="none" 
	d="
M610.000000,323.000000 
	C599.526855,323.000000 589.553711,323.000000 579.000000,323.000000 
	C579.000000,321.003265 579.000000,319.238037 579.000000,317.472809 
	C579.000000,280.487183 578.773682,243.498947 579.197083,206.518158 
	C579.278687,199.395203 581.439392,192.164474 583.469849,185.226028 
	C586.574158,174.618439 593.146362,165.809967 600.687317,158.048279 
	C607.930481,150.593048 616.571289,144.718033 626.459412,140.978546 
	C627.423523,140.613937 628.273071,139.946259 629.950073,138.967239 
	C580.690308,108.872742 555.265625,65.482552 552.894775,8.000000 
	C559.708679,8.000000 566.154358,8.000000 572.600037,8.000000 
	C586.094788,8.000000 599.591064,8.111742 613.083374,7.930196 
	C617.002991,7.877455 619.249084,8.586018 621.457336,12.584714 
	C635.561096,38.122974 650.184692,63.374138 664.799683,89.004807 
	C687.435486,89.004807 710.403625,89.004807 733.745117,89.004807 
	C733.836304,90.598694 733.988098,92.029709 733.989319,93.460861 
	C734.005432,111.787064 734.000488,130.113281 733.999756,148.439499 
	C733.999573,154.504181 732.909851,155.265228 724.625610,156.020172 
	C704.291931,157.873199 684.078979,157.887909 663.964111,152.308990 
	C663.964111,209.178284 663.964111,265.795258 663.964111,323.000000 
	C646.014343,323.000000 628.257202,323.000000 610.000000,323.000000 
z"/>
<path fill="#003133" opacity="1.000000" stroke="none" 
	d="
M280.000000,238.996643 
	C280.000000,161.868195 280.000000,85.238945 280.000000,8.304951 
	C308.608368,8.304951 337.006195,8.304951 365.810913,8.304951 
	C365.810913,89.948952 365.810913,171.671646 365.810913,253.816803 
	C377.942505,253.816803 389.682434,253.816803 401.708374,253.816803 
	C401.708374,276.969238 401.708374,299.701263 401.708374,322.944885 
	C389.820465,322.944885 377.889160,323.044952 365.960785,322.902405 
	C360.040070,322.831665 354.113098,322.456573 348.209259,321.971863 
	C334.504517,320.846649 322.205872,315.829376 311.247101,307.685699 
	C295.328644,295.856384 285.289032,280.044159 281.445587,260.649994 
	C280.082764,253.773193 280.432190,246.557068 280.000000,238.996643 
z"/>
<path fill="#003133" opacity="1.000000" stroke="none" 
	d="
M443.000000,188.000000 
	C443.000000,154.865356 443.000000,122.230721 443.000000,89.298286 
	C471.634491,89.298286 500.045258,89.298286 529.627930,89.298286 
	C523.497986,100.418007 515.745300,109.696877 506.662994,117.579842 
	C497.524750,125.511421 487.408447,132.316177 477.789215,139.563095 
	C497.395264,146.740662 512.198364,160.011734 521.525391,179.129379 
	C526.402161,189.125366 529.019470,199.792999 529.010437,211.026917 
	C528.982056,246.348633 529.000000,281.670410 529.000000,316.992157 
	C529.000000,318.801880 529.000000,320.611603 529.000000,322.709656 
	C500.363953,322.709656 471.968201,322.709656 443.000000,322.709656 
	C443.000000,278.000519 443.000000,233.250259 443.000000,188.000000 
z"/>
<path fill="#003133" opacity="1.000000" stroke="none" 
	d="
M48.000000,517.990356 
	C48.000000,522.464905 48.000000,526.441162 48.000000,530.707642 
	C38.033691,530.707642 28.299568,530.707642 18.281422,530.707642 
	C18.281422,488.015778 18.281422,445.290619 18.281422,402.002197 
	C31.180313,402.002197 44.111233,401.943146 57.038929,402.119812 
	C58.020744,402.133209 59.536552,403.652466 59.865601,404.752502 
	C64.659058,420.777344 69.351219,436.833282 73.945869,452.916565 
	C77.831833,466.519165 81.560555,480.166687 85.645874,494.824066 
	C87.264648,489.201660 88.643326,484.493896 89.975220,479.772949 
	C95.347977,460.729156 100.698799,441.679169 106.074509,422.636200 
	C107.690819,416.910583 109.235016,411.158630 111.098732,405.513275 
	C111.548889,404.149719 113.119720,402.172577 114.206001,402.152618 
	C126.988655,401.917542 139.777191,402.001617 152.780273,402.001617 
	C152.780273,445.108459 152.780273,487.833405 152.780273,530.779297 
	C142.885895,530.779297 133.152985,530.779297 123.050110,530.779297 
	C123.050110,503.558350 123.050110,476.516602 123.050110,449.474823 
	C122.679451,449.390137 122.308800,449.305481 121.938141,449.220795 
	C120.632576,453.550751 119.225533,457.853058 118.038612,462.215302 
	C112.165009,483.802399 106.308601,505.394440 100.560455,527.015137 
	C99.753952,530.048645 98.363480,531.213684 95.121490,531.079590 
	C88.634789,530.811401 82.127617,530.915588 75.632156,531.038574 
	C72.750595,531.093201 71.675995,530.422180 70.799545,527.148193 
	C64.226677,502.595673 57.189613,478.167450 50.307312,453.697662 
	C49.902435,452.258148 49.579586,450.795563 49.218567,449.343719 
	C48.812378,449.397461 48.406189,449.451202 48.000000,449.504974 
	C48.000000,472.167297 48.000000,494.829620 48.000000,517.990356 
z"/>
<path fill="#003133" opacity="1.000000" stroke="none" 
	d="
M281.859375,400.000000 
	C303.839935,401.426239 321.095947,411.113892 331.577576,429.620270 
	C345.680328,454.520020 345.547058,480.349579 329.881714,504.822083 
	C319.408569,521.183350 303.771973,529.765198 284.311218,532.154541 
	C270.472412,533.853699 257.548248,532.088440 244.891129,526.472534 
	C229.529785,519.656738 219.289734,508.117706 213.043518,492.809418 
	C208.852493,482.537994 207.233261,471.719849 208.067215,460.723877 
	C210.283447,431.501404 228.077042,406.379608 260.177521,401.113770 
	C267.118561,399.975189 274.304901,400.331970 281.859375,400.000000 
M285.871674,501.643494 
	C293.556793,499.090271 299.433929,494.226410 304.056854,487.654022 
	C310.945831,477.859985 312.921143,466.885773 309.583099,455.730743 
	C307.711517,449.476288 304.134277,442.919098 299.442993,438.494232 
	C290.260651,429.833588 278.603363,427.064606 266.064087,430.038483 
	C257.061340,432.173645 249.902679,437.056061 244.578598,444.806702 
	C238.834946,453.168121 237.954819,462.576874 239.187347,471.983856 
	C240.500656,482.007294 245.119064,490.549164 253.936981,496.583374 
	C263.625854,503.213501 273.995239,504.283813 285.871674,501.643494 
z"/>
<path fill="#003133" opacity="1.000000" stroke="none" 
	d="
M668.286987,496.284332 
	C658.054382,517.972168 641.031921,529.050598 617.832581,532.154053 
	C603.263062,534.102966 589.450195,532.196167 576.637329,525.730713 
	C557.595886,516.122314 546.489075,500.135559 543.022034,479.053436 
	C539.772949,459.296783 542.692505,440.866882 554.917297,424.376526 
	C563.414062,412.914978 574.614380,405.226685 588.265808,402.177582 
	C613.946899,396.441650 638.125000,399.349121 657.514832,419.203766 
	C667.095581,429.014160 672.320557,441.155426 674.185425,455.031372 
	C675.816589,467.169128 674.627747,478.731384 670.984253,490.215851 
	C670.355713,492.197205 669.354797,494.060425 668.286987,496.284332 
M628.487000,434.941071 
	C622.924744,432.961304 617.458191,429.642365 611.783508,429.237030 
	C589.019592,427.611237 572.827271,442.663300 572.166321,465.349213 
	C571.839111,476.580353 576.139587,486.372070 584.719543,494.384644 
	C598.798462,507.532501 625.015076,505.903076 636.991577,489.136871 
	C648.216675,473.422607 647.249084,447.974091 628.487000,434.941071 
z"/>
<path fill="#003133" opacity="1.000000" stroke="none" 
	d="
M819.003479,506.042145 
	C823.699951,514.320557 828.354370,522.223572 833.290283,530.604614 
	C821.699585,530.604614 810.517822,530.604614 799.530640,530.604614 
	C790.698181,515.088867 781.870667,499.504608 772.899902,484.003204 
	C772.323914,483.007874 770.688110,482.225098 769.462646,482.089081 
	C766.853088,481.799500 764.188965,482.000580 761.130615,482.000580 
	C761.130615,498.316772 761.130615,514.393433 761.130615,530.732605 
	C750.647095,530.732605 740.578735,530.732605 730.254150,530.732605 
	C730.254150,487.953979 730.254150,445.222229 730.254150,402.000000 
	C734.764465,402.000000 739.211304,402.000000 743.658081,402.000000 
	C758.989624,402.000000 774.332825,401.632172 789.648865,402.118927 
	C801.433716,402.493439 812.709167,405.511658 820.487671,415.231659 
	C823.598206,419.118591 825.580139,424.104218 827.290344,428.871460 
	C830.014404,436.465057 829.196106,444.283691 827.512085,452.058258 
	C824.566101,465.658997 815.799255,473.992798 802.870056,479.250885 
	C808.300171,488.165100 813.630798,496.915955 819.003479,506.042145 
M791.027710,453.978271 
	C797.825989,451.324707 798.612061,444.875488 797.930603,439.309845 
	C797.313293,434.267487 793.340027,430.421539 787.520813,430.127075 
	C778.782288,429.684906 770.004822,430.011993 761.290955,430.011993 
	C761.290955,438.636292 761.290955,446.701324 761.290955,455.000000 
	C767.384827,455.000000 773.193848,455.118195 778.995178,454.957611 
	C782.733337,454.854126 786.460266,454.341431 791.027710,453.978271 
z"/>
<path fill="#003133" opacity="1.000000" stroke="none" 
	d="
M926.226440,447.985474 
	C936.463135,450.995331 946.435730,453.613129 956.107361,457.072296 
	C969.118164,461.725830 980.017883,469.364716 982.383423,484.031128 
	C985.533325,503.560974 981.123291,520.165894 959.288696,528.246765 
	C946.671570,532.916321 933.725159,533.539490 920.282349,532.234497 
	C906.848450,530.930481 894.103333,528.291443 881.415039,521.098267 
	C885.059570,512.827087 888.773926,504.397400 892.306702,496.379852 
	C900.647888,499.097534 908.616943,502.071594 916.796448,504.259094 
	C926.080505,506.742065 935.526184,506.223541 944.773682,503.666931 
	C949.415894,502.383514 952.474609,498.875397 952.816772,494.293488 
	C953.144287,489.908234 949.866699,486.870636 945.878845,485.475616 
	C934.511536,481.499023 922.924011,478.131165 911.643616,473.931519 
	C892.490173,466.800842 885.206177,454.060364 886.234131,435.323975 
	C887.299988,415.895660 899.540222,404.463196 919.427979,401.137024 
	C938.417603,397.960999 957.201294,399.575562 975.210999,407.044128 
	C975.804626,407.290283 976.361328,407.640778 976.904785,407.989929 
	C978.530396,409.034393 980.140930,410.102356 981.801880,411.190338 
	C977.948669,419.572296 974.159424,427.815216 970.546631,435.674225 
	C963.495911,433.197388 956.859802,430.287170 949.927795,428.575867 
	C941.010498,426.374451 931.852966,425.410522 922.922607,429.014832 
	C919.538025,430.380829 917.135132,432.548279 916.978882,436.562164 
	C916.826416,440.478790 917.796448,443.627686 921.729858,445.358002 
	C923.195190,446.002594 924.467834,447.085297 926.226440,447.985474 
z"/>
<path fill="#003133" opacity="1.000000" stroke="none" 
	d="
M388.238953,429.960907 
	C387.757721,420.866730 387.757721,411.805389 387.757721,402.369385 
	C423.586456,402.369385 460.090607,402.369385 496.797974,402.369385 
	C496.797974,411.362457 496.797974,420.310577 496.797974,429.677185 
	C483.863861,429.677185 470.795258,429.677185 457.324249,429.677185 
	C457.324249,463.478333 457.324249,496.867859 457.324249,530.628418 
	C446.867096,530.628418 436.798279,530.628418 426.323242,530.628418 
	C426.323242,497.520538 426.323242,464.131012 426.323242,429.993744 
	C413.529144,429.993744 401.124634,429.993744 388.238953,429.960907 
z"/>
<path fill="#FFFFFF" opacity="1.000000" stroke="none" 
	d="
M99.226074,167.395447 
	C105.752136,156.764465 115.273468,150.656433 127.026352,151.364273 
	C139.190231,152.096863 152.802521,158.040970 156.921967,178.636047 
	C136.499008,178.636047 116.141457,178.636047 95.147087,178.636047 
	C96.432228,175.025909 97.731750,171.375381 99.226074,167.395447 
z"/>
<path fill="#FFFFFF" opacity="1.000000" stroke="none" 
	d="
M905.823730,175.563507 
	C905.175781,176.977600 904.385864,178.863632 903.579895,178.870468 
	C884.170654,179.035065 864.759766,178.998718 845.142639,178.998718 
	C844.684631,173.690567 847.029419,169.807159 849.559082,165.817291 
	C855.867249,155.868103 865.443542,150.745346 876.490173,151.494614 
	C890.526489,152.446671 900.898438,160.082275 905.086792,174.396271 
	C905.170898,174.683548 905.473633,174.906845 905.823730,175.563507 
z"/>
<path fill="#FFFFFF" opacity="1.000000" stroke="none" 
	d="
M285.479736,501.807159 
	C273.995239,504.283813 263.625854,503.213501 253.936981,496.583374 
	C245.119064,490.549164 240.500656,482.007294 239.187347,471.983856 
	C237.954819,462.576874 238.834946,453.168121 244.578598,444.806702 
	C249.902679,437.056061 257.061340,432.173645 266.064087,430.038483 
	C278.603363,427.064606 290.260651,429.833588 299.442993,438.494232 
	C304.134277,442.919098 307.711517,449.476288 309.583099,455.730743 
	C312.921143,466.885773 310.945831,477.859985 304.056854,487.654022 
	C299.433929,494.226410 293.556793,499.090271 285.479736,501.807159 
z"/>
<path fill="#FFFFFF" opacity="1.000000" stroke="none" 
	d="
M628.857788,434.983826 
	C647.249084,447.974091 648.216675,473.422607 636.991577,489.136871 
	C625.015076,505.903076 598.798462,507.532501 584.719543,494.384644 
	C576.139587,486.372070 571.839111,476.580353 572.166321,465.349213 
	C572.827271,442.663300 589.019592,427.611237 611.783508,429.237030 
	C617.458191,429.642365 622.924744,432.961304 628.857788,434.983826 
z"/>
<path fill="#FFFFFF" opacity="1.000000" stroke="none" 
	d="
M790.609985,453.995239 
	C786.460266,454.341431 782.733337,454.854126 778.995178,454.957611 
	C773.193848,455.118195 767.384827,455.000000 761.290955,455.000000 
	C761.290955,446.701324 761.290955,438.636292 761.290955,430.011993 
	C770.004822,430.011993 778.782288,429.684906 787.520813,430.127075 
	C793.340027,430.421539 797.313293,434.267487 797.930603,439.309845 
	C798.612061,444.875488 797.825989,451.324707 790.609985,453.995239 
z"/>
</svg>